# xmcd
#
# Track frame offsets:
#	150
#	16934
#	34172
#	46252
#	65760
#	80385
#	95836
#	116499
#	134467
#
# Disc length: 2084 seconds
#
# Revision: 0
# Processed by: cddbd v1.5.2PL0 Copyright (c) Steve Scherf et al.
# Submitted via: EasyCDDAExtractor 8.2.3.1
#
DISCID=76082209
DTITLE=Alice Kay Adams - Tennessee Homecoming
DYEAR=1986
DGENRE=Country
TTITLE0=If I'm Not In Heaven Then I Must Be In Tennessee
TTITLE1=Mr  Farris
TTITLE2=(There's No Such Thing As The) Blue Ridge Blues
TTITLE3=On The Road To Damaskus [The Story Of G  B  Grayson]
TTITLE4=Going Home
TTITLE5=Little Ragged Joe
TTITLE6=Roomful Of Legend
TTITLE7=Box Of Pictures
TTITLE8=God Bless Peggy Joan
EXTD=
EXTT0=
EXTT1=
EXTT2=
EXTT3=
EXTT4=
EXTT5=
EXTT6=
EXTT7=
EXTT8=
PLAYORDER=
